<svg xmlns="http://www.w3.org/2000/svg" xmlns:xlink="http://www.w3.org/1999/xlink" xmlns:lucid="lucid" width="1864" height="1017.33"><g transform="translate(781 -326.6666666666771)" lucid:page-tab-id="0_0"><path d="M-240 533.67a6 6 0 0 1 6-6h428a6 6 0 0 1 6 6v68a6 6 0 0 1-6 6h-428a6 6 0 0 1-6-6z" fill="none"/><path d="M-240 567.67h440m-440-40v80m440-80v80" stroke="#3d4752" stroke-width="2" fill="none"/><path d="M-240 633.67a6 6 0 0 1 6-6h508a6 6 0 0 1 6 6v68a6 6 0 0 1-6 6h-508a6 6 0 0 1-6-6z" fill="none"/><path d="M-240 667.67h520m-520-40v80m520-80v80" stroke="#3d4752" stroke-width="2" fill="none"/><path d="M0 547.67a6 6 0 0 1 6-6h188a6 6 0 0 1 6 6v38a6 6 0 0 1-6 6H6a6 6 0 0 1-6-6z" stroke="#282c33" stroke-width="2" fill="#54c45e"/><use xlink:href="#a" transform="matrix(1,0,0,1,5,546.6666666666771) translate(51.57407407407409 29.166666666666657)"/><path d="M-440 553.67a6 6 0 0 1 6-6h228a6 6 0 0 1 6 6v48a6 6 0 0 1-6 6h-228a6 6 0 0 1-6-6z" stroke="#000" stroke-opacity="0" stroke-width="2" fill="#fff" fill-opacity="0"/><use xlink:href="#b" transform="matrix(1,0,0,1,-435,552.6666666666771) translate(54.85185185185188 31.569444444444436)"/><use xlink:href="#c" transform="matrix(1,0,0,1,-435,552.6666666666771) translate(110.06172839506173 31.569444444444436)"/><use xlink:href="#d" transform="matrix(1,0,0,1,-435,552.6666666666771) translate(131.69135802469134 31.569444444444436)"/><path d="M-440 645a6 6 0 0 1 6-6h228a6 6 0 0 1 6 6v48a6 6 0 0 1-6 6h-228a6 6 0 0 1-6-6z" stroke="#000" stroke-opacity="0" stroke-width="2" fill="#fff" fill-opacity="0"/><use xlink:href="#e" transform="matrix(1,0,0,1,-435,643.999999999991) translate(51.09259259259262 33.347222222222214)"/><use xlink:href="#f" transform="matrix(1,0,0,1,-435,643.999999999991) translate(109.75308641975309 33.347222222222214)"/><use xlink:href="#g" transform="matrix(1,0,0,1,-435,643.999999999991) translate(132.73456790123456 33.347222222222214)"/><path d="M80 650a6 6 0 0 1 6-6h188a6 6 0 0 1 6 6v38a6 6 0 0 1-6 6H86a6 6 0 0 1-6-6z" stroke="#282c33" stroke-width="2" fill="#54c45e"/><use xlink:href="#a" transform="matrix(1,0,0,1,85,648.999999999991) translate(51.57407407407409 29.166666666666657)"/><path d="M-360 596.33a6 6 0 0 1 6-6h228a6 6 0 0 1 6 6v48a6 6 0 0 1-6 6h-228a6 6 0 0 1-6-6z" stroke="#000" stroke-opacity="0" stroke-width="2" fill="#fff" fill-opacity="0"/><use xlink:href="#h" transform="matrix(1,0,0,1,-355,595.333333333305) translate(58.074074074074076 30.708333333333332)"/><use xlink:href="#i" transform="matrix(1,0,0,1,-355,595.333333333305) translate(121.7037037037037 30.708333333333332)"/><path d="M-240 473.67a6 6 0 0 1 6-6H-6a6 6 0 0 1 6 6v48a6 6 0 0 1-6 6h-228a6 6 0 0 1-6-6z" stroke="#000" stroke-opacity="0" stroke-width="2" fill="#fff" fill-opacity="0"/><use xlink:href="#j" transform="matrix(1,0,0,1,-235,472.6666666666771) translate(103.88888888888889 32.91666666666666)"/><path d="M-6 507.67a6 6 0 0 1 6 6v148a6 6 0 0 1-6 6h-228a6 6 0 0 1-6-6v-148a6 6 0 0 1 6-6z" fill="#fff" fill-opacity="0"/><path d="M0 523.67v-10a6 6 0 0 0-6-6h-228a6 6 0 0 0-6 6v10" stroke="#282c33" stroke-width="2" fill="none"/><path d="M-234 727.67a6 6 0 0 1-6-6v-148a6 6 0 0 1 6-6H74a6 6 0 0 1 6 6v148a6 6 0 0 1-6 6z" fill="#fff" fill-opacity="0"/><path d="M-240 711.67v10a6 6 0 0 0 6 6H74a6 6 0 0 0 6-6v-10" stroke="#282c33" stroke-width="2" fill="none"/><path d="M-200 693.67a6 6 0 0 1 6-6H34a6 6 0 0 1 6 6v48a6 6 0 0 1-6 6h-228a6 6 0 0 1-6-6z" stroke="#000" stroke-opacity="0" stroke-width="2" fill="#fff" fill-opacity="0"/><use xlink:href="#k" transform="matrix(1,0,0,1,-195,692.6666666666771) translate(103.14814814814815 31.569444444444436)"/><path d="M80 494a6 6 0 0 1 6-6h228a6 6 0 0 1 6 6v48a6 6 0 0 1-6 6H86a6 6 0 0 1-6-6z" stroke="#000" stroke-opacity="0" stroke-width="2" fill="#fff" fill-opacity="0"/><use xlink:href="#l" transform="matrix(1,0,0,1,85,492.999999999991) translate(55.97222222222224 32.91666666666666)"/><use xlink:href="#m" transform="matrix(1,0,0,1,85,492.999999999991) translate(87.45370370370371 32.91666666666666)"/><use xlink:href="#n" transform="matrix(1,0,0,1,85,492.999999999991) translate(116.1574074074074 32.91666666666666)"/><path d="M180 700a6 6 0 0 1 6-6h228a6 6 0 0 1 6 6v51.33a6 6 0 0 1-6 6H186a6 6 0 0 1-6-6z" stroke="#000" stroke-opacity="0" stroke-width="2" fill="#fff" fill-opacity="0"/><use xlink:href="#o" transform="matrix(1,0,0,1,184.9999999999999,698.999999999991) translate(56.29629629629632 33.41666666666666)"/><use xlink:href="#m" transform="matrix(1,0,0,1,184.9999999999999,698.999999999991) translate(87.12962962962965 33.41666666666666)"/><use xlink:href="#n" transform="matrix(1,0,0,1,184.9999999999999,698.999999999991) translate(115.83333333333333 33.41666666666666)"/><path d="M-105 353.67a6 6 0 0 1 6-6h398a6 6 0 0 1 6 6V469a6 6 0 0 1-6 6H-99a6 6 0 0 1-6-6z" stroke="#000" stroke-opacity="0" stroke-width="2" fill="#fff" fill-opacity="0"/><use xlink:href="#p" transform="matrix(1,0,0,1,-100,352.6666666666771) translate(47.81481481481498 66.83333333333331)"/><use xlink:href="#q" transform="matrix(1,0,0,1,-100,352.6666666666771) translate(172.12962962962968 66.83333333333331)"/><use xlink:href="#r" transform="matrix(1,0,0,1,-100,352.6666666666771) translate(211.0185185185185 66.83333333333331)"/><use xlink:href="#s" transform="matrix(1,0,0,1,-100,352.6666666666771) translate(239.40740740740736 66.83333333333331)"/><use xlink:href="#t" transform="matrix(1,0,0,1,-100,352.6666666666771) translate(283.4814814814814 66.83333333333331)"/><use xlink:href="#u" transform="matrix(1,0,0,1,-100,352.6666666666771) translate(321.9814814814813 66.83333333333331)"/><path d="M-80 743.67a6 6 0 0 1 6-6h373a6 6 0 0 1 6 6v48a6 6 0 0 1-6 6H-74a6 6 0 0 1-6-6z" stroke="#b5d6ff" stroke-width="2" fill="#cfe4ff"/><use xlink:href="#v" transform="matrix(1,0,0,1,-75,742.6666666666771) translate(22.739506172839583 36.902777777777764)"/><use xlink:href="#w" transform="matrix(1,0,0,1,-75,742.6666666666771) translate(287.75432098765424 36.902777777777764)"/><use xlink:href="#x" transform="matrix(1,0,0,1,-75,742.6666666666771) translate(324.11234567901226 36.902777777777764)"/><path d="M-580 1031a6 6 0 0 1 6-6h528a6 6 0 0 1 6 6v68a6 6 0 0 1-6 6h-528a6 6 0 0 1-6-6z" fill="none"/><path d="M-580 1065h540m-540-40v80m540-80v80" stroke="#3d4752" stroke-width="2" fill="none"/><path d="M-580 1131a6 6 0 0 1 6-6h448a6 6 0 0 1 6 6v68a6 6 0 0 1-6 6h-448a6 6 0 0 1-6-6z" fill="none"/><path d="M-580 1165h460m-460-40v80m460-80v80" stroke="#3d4752" stroke-width="2" fill="none"/><path d="M-240 1044.67a6 6 0 0 1 6-6h188a6 6 0 0 1 6 6v40.66a6 6 0 0 1-6 6h-188a6 6 0 0 1-6-6z" stroke="#282c33" stroke-width="2" fill="#54c45e"/><use xlink:href="#a" transform="matrix(1,0,0,1,-235,1043.6666666666079) translate(51.57407407407409 29.354166666666657)"/><path d="M-760 1042a6 6 0 0 1 6-6h228a6 6 0 0 1 6 6v48a6 6 0 0 1-6 6h-228a6 6 0 0 1-6-6z" stroke="#000" stroke-opacity="0" stroke-width="2" fill="#fff" fill-opacity="0"/><use xlink:href="#y" transform="matrix(1,0,0,1,-755,1040.9999999999714) translate(58.61111111111113 32.91666666666666)"/><use xlink:href="#z" transform="matrix(1,0,0,1,-755,1040.9999999999714) translate(110.37037037037037 32.91666666666666)"/><use xlink:href="#A" transform="matrix(1,0,0,1,-755,1040.9999999999714) translate(130.64814814814815 32.91666666666666)"/><path d="M-760 1140.67a6 6 0 0 1 6-6h228a6 6 0 0 1 6 6v48a6 6 0 0 1-6 6h-228a6 6 0 0 1-6-6z" stroke="#000" stroke-opacity="0" stroke-width="2" fill="#fff" fill-opacity="0"/><use xlink:href="#B" transform="matrix(1,0,0,1,-755,1139.6666666666574) translate(58.61111111111113 32.91666666666666)"/><use xlink:href="#z" transform="matrix(1,0,0,1,-755,1139.6666666666574) translate(110.37037037037037 32.91666666666666)"/><use xlink:href="#A" transform="matrix(1,0,0,1,-755,1139.6666666666574) translate(130.64814814814815 32.91666666666666)"/><path d="M-320 1147.33a6 6 0 0 1 6-6h188a6 6 0 0 1 6 6v38a6 6 0 0 1-6 6h-188a6 6 0 0 1-6-6z" stroke="#282c33" stroke-width="2" fill="#54c45e"/><use xlink:href="#a" transform="matrix(1,0,0,1,-315,1146.333333333255) translate(51.57407407407409 29.166666666666657)"/><path d="M-705 1097.33a6 6 0 0 1 6-6h228a6 6 0 0 1 6 6v48a6 6 0 0 1-6 6h-228a6 6 0 0 1-6-6z" stroke="#000" stroke-opacity="0" stroke-width="2" fill="#fff" fill-opacity="0"/><use xlink:href="#C" transform="matrix(1,0,0,1,-700,1096.3333333332746) translate(53.330246913580254 29.36111111111111)"/><use xlink:href="#D" transform="matrix(1,0,0,1,-700,1096.3333333332746) translate(122.26234567901234 29.36111111111111)"/><path d="M-540 971a6 6 0 0 1 6-6h228a6 6 0 0 1 6 6v48a6 6 0 0 1-6 6h-228a6 6 0 0 1-6-6z" stroke="#000" stroke-opacity="0" stroke-width="2" fill="#fff" fill-opacity="0"/><use xlink:href="#E" transform="matrix(1,0,0,1,-535,969.9999999999411) translate(103.14814814814815 31.569444444444436)"/><path d="M-246 1005a6 6 0 0 1 6 6v148a6 6 0 0 1-6 6h-328a6 6 0 0 1-6-6v-148a6 6 0 0 1 6-6z" fill="#fff" fill-opacity="0"/><path d="M-240 1021v-10a6 6 0 0 0-6-6h-328a6 6 0 0 0-6 6v10" stroke="#282c33" stroke-width="2" fill="none"/><path d="M-574 1225a6 6 0 0 1-6-6v-148a6 6 0 0 1 6-6h248a6 6 0 0 1 6 6v148a6 6 0 0 1-6 6z" fill="#fff" fill-opacity="0"/><path d="M-580 1209v10a6 6 0 0 0 6 6h248a6 6 0 0 0 6-6v-10" stroke="#282c33" stroke-width="2" fill="none"/><path d="M-570 1191a6 6 0 0 1 6-6h228a6 6 0 0 1 6 6v48a6 6 0 0 1-6 6h-228a6 6 0 0 1-6-6z" stroke="#000" stroke-opacity="0" stroke-width="2" fill="#fff" fill-opacity="0"/><use xlink:href="#F" transform="matrix(1,0,0,1,-565,1189.999999999941) translate(103.88888888888889 32.91666666666666)"/><path d="M-160 991.33a6 6 0 0 1 6-6H74a6 6 0 0 1 6 6v48a6 6 0 0 1-6 6h-228a6 6 0 0 1-6-6z" stroke="#000" stroke-opacity="0" stroke-width="2" fill="#fff" fill-opacity="0"/><use xlink:href="#l" transform="matrix(1,0,0,1,-155,990.333333333255) translate(55.97222222222224 32.91666666666666)"/><use xlink:href="#m" transform="matrix(1,0,0,1,-155,990.333333333255) translate(87.45370370370371 32.91666666666666)"/><use xlink:href="#n" transform="matrix(1,0,0,1,-155,990.333333333255) translate(116.1574074074074 32.91666666666666)"/><path d="M-220 1197.33a6 6 0 0 1 6-6H14a6 6 0 0 1 6 6v51.34a6 6 0 0 1-6 6h-228a6 6 0 0 1-6-6z" stroke="#000" stroke-opacity="0" stroke-width="2" fill="#fff" fill-opacity="0"/><use xlink:href="#G" transform="matrix(1,0,0,1,-215,1196.333333333255) translate(60.20987654320989 31.638888888888886)"/><use xlink:href="#H" transform="matrix(1,0,0,1,-215,1196.333333333255) translate(88.98765432098766 31.638888888888886)"/><use xlink:href="#I" transform="matrix(1,0,0,1,-215,1196.333333333255) translate(115.77777777777777 31.638888888888886)"/><path d="M-530 897.33a6 6 0 0 1 6-6h408a6 6 0 0 1 6 6v51.34a6 6 0 0 1-6 6h-408a6 6 0 0 1-6-6z" stroke="#000" stroke-opacity="0" stroke-width="2" fill="#fff" fill-opacity="0"/><use xlink:href="#J" transform="matrix(1,0,0,1,-525,896.333333333324) translate(71.4370370370371 37.152777777777764)"/><use xlink:href="#K" transform="matrix(1,0,0,1,-525,896.333333333324) translate(108.85061728395067 37.152777777777764)"/><use xlink:href="#L" transform="matrix(1,0,0,1,-525,896.333333333324) translate(148.7271604938272 37.152777777777764)"/><use xlink:href="#M" transform="matrix(1,0,0,1,-525,896.333333333324) translate(185.0851851851852 37.152777777777764)"/><use xlink:href="#N" transform="matrix(1,0,0,1,-525,896.333333333324) translate(224.14074074074074 37.152777777777764)"/><use xlink:href="#O" transform="matrix(1,0,0,1,-525,896.333333333324) translate(260.49876543209876 37.152777777777764)"/><path d="M-465 1251a6 6 0 0 1 6-6h333a6 6 0 0 1 6 6v44a6 6 0 0 1-6 6h-333a6 6 0 0 1-6-6z" stroke="#b5d6ff" stroke-width="2" fill="#cfe4ff"/><use xlink:href="#v" transform="matrix(1,0,0,1,-460,1249.999999999941) translate(2.739506172839583 36.652777777777764)"/><use xlink:href="#w" transform="matrix(1,0,0,1,-460,1249.999999999941) translate(267.75432098765424 36.652777777777764)"/><use xlink:href="#P" transform="matrix(1,0,0,1,-460,1249.999999999941) translate(304.11234567901226 36.652777777777764)"/><path d="M230 1020.67a6 6 0 0 1 6-6h493a6 6 0 0 1 6 6v68a6 6 0 0 1-6 6H236a6 6 0 0 1-6-6z" fill="none"/><path d="M230 1054.67h505m-505-40v80m505-80v80" stroke="#3d4752" stroke-width="2" fill="none"/><path d="M230 1120.67a6 6 0 0 1 6-6h238a6 6 0 0 1 6 6v68a6 6 0 0 1-6 6H236a6 6 0 0 1-6-6z" fill="none"/><path d="M230 1154.67h250m-250-40v80m250-80v80" stroke="#3d4752" stroke-width="2" fill="none"/><path d="M535 1035.67a6 6 0 0 1 6-6h188a6 6 0 0 1 6 6v38a6 6 0 0 1-6 6H541a6 6 0 0 1-6-6z" stroke="#282c33" stroke-width="2" fill="#54c45e"/><use xlink:href="#a" transform="matrix(1,0,0,1,540,1034.6666666666574) translate(51.57407407407409 29.166666666666657)"/><path d="M50 1029.67a6 6 0 0 1 6-6h228a6 6 0 0 1 6 6v48a6 6 0 0 1-6 6H56a6 6 0 0 1-6-6z" stroke="#000" stroke-opacity="0" stroke-width="2" fill="#fff" fill-opacity="0"/><use xlink:href="#y" transform="matrix(1,0,0,1,55,1028.6666666666574) translate(58.61111111111113 32.91666666666666)"/><use xlink:href="#z" transform="matrix(1,0,0,1,55,1028.6666666666574) translate(110.37037037037037 32.91666666666666)"/><use xlink:href="#A" transform="matrix(1,0,0,1,55,1028.6666666666574) translate(130.64814814814815 32.91666666666666)"/><path d="M50 1132a6 6 0 0 1 6-6h228a6 6 0 0 1 6 6v48a6 6 0 0 1-6 6H56a6 6 0 0 1-6-6z" stroke="#000" stroke-opacity="0" stroke-width="2" fill="#fff" fill-opacity="0"/><use xlink:href="#B" transform="matrix(1,0,0,1,55,1130.9999999999714) translate(58.61111111111113 32.91666666666666)"/><use xlink:href="#z" transform="matrix(1,0,0,1,55,1130.9999999999714) translate(110.37037037037037 32.91666666666666)"/><use xlink:href="#A" transform="matrix(1,0,0,1,55,1130.9999999999714) translate(130.64814814814815 32.91666666666666)"/><path d="M280 1137a6 6 0 0 1 6-6h188a6 6 0 0 1 6 6v38a6 6 0 0 1-6 6H286a6 6 0 0 1-6-6z" stroke="#282c33" stroke-width="2" fill="#54c45e"/><use xlink:href="#a" transform="matrix(1,0,0,1,285,1135.9999999999714) translate(51.57407407407409 29.166666666666657)"/><path d="M120 1085.67a6 6 0 0 1 6-6h228a6 6 0 0 1 6 6v48a6 6 0 0 1-6 6H126a6 6 0 0 1-6-6z" stroke="#000" stroke-opacity="0" stroke-width="2" fill="#fff" fill-opacity="0"/><use xlink:href="#C" transform="matrix(1,0,0,1,125,1084.6666666666574) translate(53.330246913580254 29.36111111111111)"/><use xlink:href="#D" transform="matrix(1,0,0,1,125,1084.6666666666574) translate(122.26234567901234 29.36111111111111)"/><path d="M255 960.67a6 6 0 0 1 6-6h228a6 6 0 0 1 6 6v48a6 6 0 0 1-6 6H261a6 6 0 0 1-6-6z" stroke="#000" stroke-opacity="0" stroke-width="2" fill="#fff" fill-opacity="0"/><use xlink:href="#j" transform="matrix(1,0,0,1,260,959.6666666666573) translate(103.88888888888889 32.91666666666666)"/><path d="M529 994.67a6 6 0 0 1 6 6v148a6 6 0 0 1-6 6H236a6 6 0 0 1-6-6v-148a6 6 0 0 1 6-6z" fill="#fff" fill-opacity="0"/><path d="M535 1010.67v-10a6 6 0 0 0-6-6H236a6 6 0 0 0-6 6v10" stroke="#000" stroke-width="2" fill="none"/><path d="M236 1214.67a6 6 0 0 1-6-6v-148a6 6 0 0 1 6-6h38a6 6 0 0 1 6 6v148a6 6 0 0 1-6 6z" fill="#fff" fill-opacity="0"/><path d="M230 1198.67v10a6 6 0 0 0 6 6h38a6 6 0 0 0 6-6v-10" stroke="#000" stroke-width="2" fill="none"/><path d="M230 1180.67a6 6 0 0 1 6-6h38a6 6 0 0 1 6 6v48a6 6 0 0 1-6 6h-38a6 6 0 0 1-6-6z" stroke="#000" stroke-opacity="0" stroke-width="2" fill="#fff" fill-opacity="0"/><g><use xlink:href="#Q" transform="matrix(1,0,0,1,235,1179.666666666657) translate(8.148148148148152 31.569444444444436)"/></g><path d="M615 981a6 6 0 0 1 6-6h228a6 6 0 0 1 6 6v48a6 6 0 0 1-6 6H621a6 6 0 0 1-6-6z" stroke="#000" stroke-opacity="0" stroke-width="2" fill="#fff" fill-opacity="0"/><g><use xlink:href="#l" transform="matrix(1,0,0,1,620,979.9999999999708) translate(55.97222222222224 32.91666666666666)"/><use xlink:href="#m" transform="matrix(1,0,0,1,620,979.9999999999708) translate(87.45370370370371 32.91666666666666)"/><use xlink:href="#n" transform="matrix(1,0,0,1,620,979.9999999999708) translate(116.1574074074074 32.91666666666666)"/></g><path d="M362.5 1079.33a6 6 0 0 1 6-6h228a6 6 0 0 1 6 6v51.34a6 6 0 0 1-6 6h-228a6 6 0 0 1-6-6z" stroke="#000" stroke-opacity="0" stroke-width="2" fill="#fff" fill-opacity="0"/><g><use xlink:href="#o" transform="matrix(1,0,0,1,367.5,1078.3333333333433) translate(56.29629629629632 33.41666666666666)"/><use xlink:href="#m" transform="matrix(1,0,0,1,367.5,1078.3333333333433) translate(87.12962962962965 33.41666666666666)"/><use xlink:href="#n" transform="matrix(1,0,0,1,367.5,1078.3333333333433) translate(115.83333333333333 33.41666666666666)"/></g><path d="M310 897.33a6 6 0 0 1 6-6h408a6 6 0 0 1 6 6v51.34a6 6 0 0 1-6 6H316a6 6 0 0 1-6-6z" stroke="#000" stroke-opacity="0" stroke-width="2" fill="#fff" fill-opacity="0"/><g><use xlink:href="#J" transform="matrix(1,0,0,1,315,896.3333333333239) translate(72.19938271604946 37.152777777777764)"/><use xlink:href="#K" transform="matrix(1,0,0,1,315,896.3333333333239) translate(109.61296296296302 37.152777777777764)"/><use xlink:href="#R" transform="matrix(1,0,0,1,315,896.3333333333239) translate(149.48950617283955 37.152777777777764)"/><use xlink:href="#M" transform="matrix(1,0,0,1,315,896.3333333333239) translate(184.32283950617287 37.152777777777764)"/><use xlink:href="#N" transform="matrix(1,0,0,1,315,896.3333333333239) translate(223.3783950617284 37.152777777777764)"/><use xlink:href="#O" transform="matrix(1,0,0,1,315,896.3333333333239) translate(259.7364197530864 37.152777777777764)"/></g><path d="M320 1250.17a6 6 0 0 1 6-6h458a6 6 0 0 1 6 6v45.66a6 6 0 0 1-6 6H326a6 6 0 0 1-6-6z" stroke="#b5d6ff" stroke-width="2" fill="#cfe4ff"/><g><use xlink:href="#S" transform="matrix(1,0,0,1,325,1249.1666666666079) translate(4.216666666666697 36.77777777777778)"/><use xlink:href="#T" transform="matrix(1,0,0,1,325,1249.1666666666079) translate(297.3796296296296 36.77777777777778)"/><use xlink:href="#U" transform="matrix(1,0,0,1,325,1249.1666666666079) translate(336.43518518518516 36.77777777777778)"/><use xlink:href="#V" transform="matrix(1,0,0,1,325,1249.1666666666079) translate(372.7932098765432 36.77777777777778)"/></g><path d="M480 1120.67a6 6 0 0 1 6-6h278a6 6 0 0 1 6 6v68a6 6 0 0 1-6 6H486a6 6 0 0 1-6-6z" fill="none"/><path d="M480 1154.67h290m-290-40v80m290-80v80" stroke="#000" stroke-width="2" fill="none"/><g><path d="M286 1214.67a6 6 0 0 1-6-6v-148a6 6 0 0 1 6-6h478a6 6 0 0 1 6 6v148a6 6 0 0 1-6 6z" fill="#fff" fill-opacity="0"/><path d="M280 1198.67v10a6 6 0 0 0 6 6h478a6 6 0 0 0 6-6v-10" stroke="#282c33" stroke-width="2" fill="none"/></g><path d="M540 1171a6 6 0 0 1 6-6h88a6 6 0 0 1 6 6v51.33a6 6 0 0 1-6 6h-88a6 6 0 0 1-6-6z" stroke="#000" stroke-opacity="0" stroke-width="2" fill="#fff" fill-opacity="0"/><g><use xlink:href="#W" transform="matrix(1,0,0,1,545,1169.9999999999413) translate(12.240740740740755 33.41666666666666)"/></g><path d="M770 1137a6 6 0 0 1 6-6h188a6 6 0 0 1 6 6v38a6 6 0 0 1-6 6H776a6 6 0 0 1-6-6z" stroke="#282c33" stroke-width="2" fill="#54c45e"/><g><use xlink:href="#a" transform="matrix(1,0,0,1,775,1135.999999999971) translate(51.57407407407409 29.166666666666657)"/></g><path d="M-658.5 807.67h1637M-658.46 807.67H-660M978.46 807.67H980" stroke="#000" stroke-width="3" fill="none"/><path d="M-110 831.33a6 6 0 0 1 6-6h408a6 6 0 0 1 6 6v54a6 6 0 0 1-6 6h-408a6 6 0 0 1-6-6z" stroke="#000" stroke-opacity="0" stroke-width="2" fill="#fff" fill-opacity="0"/><g><use xlink:href="#X" transform="matrix(1,0,0,1,-105,830.3333333333239) translate(51.51851851851859 40.833333333333314)"/><use xlink:href="#Y" transform="matrix(1,0,0,1,-105,830.3333333333239) translate(175.83333333333334 40.833333333333314)"/><use xlink:href="#Z" transform="matrix(1,0,0,1,-105,830.3333333333239) translate(214.72222222222223 40.833333333333314)"/><use xlink:href="#aa" transform="matrix(1,0,0,1,-105,830.3333333333239) translate(243.11111111111111 40.833333333333314)"/><use xlink:href="#ab" transform="matrix(1,0,0,1,-105,830.3333333333239) translate(287.18518518518516 40.833333333333314)"/><use xlink:href="#ac" transform="matrix(1,0,0,1,-105,830.3333333333239) translate(327.3703703703703 40.833333333333314)"/></g><path d="M100 1338.5v-397M100 1338.46v1.54M100 941.54V940" stroke="#000" stroke-width="3" fill="none"/><path d="M737 1055.33h284.5" stroke="#000" stroke-width="2" fill="none"/><path d="M737.03 1056.3H736v-1.94h1.03z" stroke="#000" stroke-width=".05"/><path d="M1036.76 1055.33l-14.26 4.64v-9.27z" stroke="#000" stroke-width="2"/><path d="M202 566.67h299.5" stroke="#000" stroke-width="2" fill="none"/><path d="M202.03 567.64H201v-1.95h1.03z" stroke="#000" stroke-width=".05"/><path d="M516.76 566.67l-14.26 4.63v-9.27z" stroke="#000" stroke-width="2"/><path d="M282 667.67h219.5" stroke="#000" stroke-width="2" fill="none"/><path d="M282.03 668.64H281v-1.95h1.03z" stroke="#000" stroke-width=".05"/><path d="M516.76 667.67l-14.26 4.63v-9.27z" stroke="#000" stroke-width="2"/><path d="M972 1153.33h49.5" stroke="#000" stroke-width="2" fill="none"/><path d="M972.03 1154.3H971v-1.94h1.03z" stroke="#000" stroke-width=".05"/><path d="M1036.76 1153.33l-14.26 4.64v-9.27z" stroke="#000" stroke-width="2"/><path d="M-38 1065.75h59.5" stroke="#000" stroke-width="2" fill="none"/><path d="M-41 1066.73h-1v-.73h1zm3.03 0H-39v-1.95h1.03z" stroke="#000" stroke-width=".05"/><path d="M36.76 1065.75l-14.26 4.64v-9.28z" stroke="#000" stroke-width="2"/><path d="M-118 1166.33H21.5" stroke="#000" stroke-width="2" fill="none"/><path d="M-117.97 1167.3H-119v-1.94h1.03z" stroke="#000" stroke-width=".05"/><path d="M36.76 1166.33l-14.26 4.64v-9.27z" stroke="#000" stroke-width="2"/><defs><path d="M24 0v-261h32V0H24" id="ad"/><path d="M24-231v-30h32v30H24zM24 0v-190h32V0H24" id="ae"/><path d="M117-194c89-4 53 116 60 194h-32v-121c0-31-8-49-39-48C34-167 62-67 57 0H25l-1-190h30c1 10-1 24 2 32 11-22 29-35 61-36" id="af"/><path d="M143 0L79-87 56-68V0H24v-261h32v163l83-92h37l-77 82L181 0h-38" id="ag"/><path d="M100-194c63 0 86 42 84 106H49c0 40 14 67 53 68 26 1 43-12 49-29l28 8c-11 28-37 45-77 45C44 4 14-33 15-96c1-61 26-98 85-98zm52 81c6-60-76-77-97-28-3 7-6 17-6 28h103" id="ah"/><path d="M85-194c31 0 48 13 60 33l-1-100h32l1 261h-30c-2-10 0-23-3-31C134-8 116 4 85 4 32 4 16-35 15-94c0-66 23-100 70-100zm9 24c-40 0-46 34-46 75 0 40 6 74 45 74 42 0 51-32 51-76 0-42-9-74-50-73" id="ai"/><g id="a"><use transform="matrix(0.09259259259259256,0,0,0.09259259259259256,0,0)" xlink:href="#ad"/><use transform="matrix(0.09259259259259256,0,0,0.09259259259259256,7.314814814814812,0)" xlink:href="#ae"/><use transform="matrix(0.09259259259259256,0,0,0.09259259259259256,14.629629629629624,0)" xlink:href="#af"/><use transform="matrix(0.09259259259259256,0,0,0.09259259259259256,33.14814814814814,0)" xlink:href="#ag"/><use transform="matrix(0.09259259259259256,0,0,0.09259259259259256,49.814814814814795,0)" xlink:href="#ah"/><use transform="matrix(0.09259259259259256,0,0,0.09259259259259256,68.33333333333331,0)" xlink:href="#ai"/></g><path d="M190 0L58-211 59 0H30v-248h39L202-35l-2-213h31V0h-41" id="aj"/><path d="M27 0v-27h64v-190l-56 39v-29l58-41h29v221h61V0H27" id="ak"/><g id="b"><use transform="matrix(0.0987654320987654,0,0,0.0987654320987654,0,0)" xlink:href="#aj"/><use transform="matrix(0.0987654320987654,0,0,0.0987654320987654,25.58024691358024,0)" xlink:href="#ak"/></g><path d="M16-82v-28h88v28H16" id="al"/><use transform="matrix(0.0987654320987654,0,0,0.0987654320987654,0,0)" xlink:href="#al" id="c"/><path d="M185-189c-5-48-123-54-124 2 14 75 158 14 163 119 3 78-121 87-175 55-17-10-28-26-33-46l33-7c5 56 141 63 141-1 0-78-155-14-162-118-5-82 145-84 179-34 5 7 8 16 11 25" id="am"/><g id="d"><use transform="matrix(0.0987654320987654,0,0,0.0987654320987654,0,0)" xlink:href="#am"/><use transform="matrix(0.0987654320987654,0,0,0.0987654320987654,23.703703703703695,0)" xlink:href="#ak"/></g><path d="M101-251c82-7 93 87 43 132L82-64C71-53 59-42 53-27h129V0H18c2-99 128-94 128-182 0-28-16-43-45-43s-46 15-49 41l-32-3c6-41 34-60 81-64" id="an"/><g id="e"><use transform="matrix(0.10493827160493824,0,0,0.10493827160493824,0,0)" xlink:href="#aj"/><use transform="matrix(0.10493827160493824,0,0,0.10493827160493824,27.179012345679002,0)" xlink:href="#an"/></g><use transform="matrix(0.10493827160493824,0,0,0.10493827160493824,0,0)" xlink:href="#al" id="f"/><g id="g"><use transform="matrix(0.10493827160493824,0,0,0.10493827160493824,0,0)" xlink:href="#am"/><use transform="matrix(0.10493827160493824,0,0,0.10493827160493824,25.185185185185176,0)" xlink:href="#ak"/></g><path d="M59-47c-2 24 18 29 38 22v24C64 9 27 4 27-40v-127H5v-23h24l9-43h21v43h35v23H59v120" id="ao"/><path d="M141-36C126-15 110 5 73 4 37 3 15-17 15-53c-1-64 63-63 125-63 3-35-9-54-41-54-24 1-41 7-42 31l-33-3c5-37 33-52 76-52 45 0 72 20 72 64v82c-1 20 7 32 28 27v20c-31 9-61-2-59-35zM48-53c0 20 12 33 32 33 41-3 63-29 60-74-43 2-92-5-92 41" id="ap"/><path d="M114-163C36-179 61-72 57 0H25l-1-190h30c1 12-1 29 2 39 6-27 23-49 58-41v29" id="aq"/><g id="h"><use transform="matrix(0.07407407407407407,0,0,0.07407407407407407,0,0)" xlink:href="#am"/><use transform="matrix(0.07407407407407407,0,0,0.07407407407407407,17.77777777777778,0)" xlink:href="#ao"/><use transform="matrix(0.07407407407407407,0,0,0.07407407407407407,25.185185185185183,0)" xlink:href="#ap"/><use transform="matrix(0.07407407407407407,0,0,0.07407407407407407,40,0)" xlink:href="#aq"/><use transform="matrix(0.07407407407407407,0,0,0.07407407407407407,48.814814814814824,0)" xlink:href="#ao"/></g><path d="M210-169c-67 3-38 105-44 169h-31v-121c0-29-5-50-35-48C34-165 62-65 56 0H25l-1-190h30c1 10-1 24 2 32 10-44 99-50 107 0 11-21 27-35 58-36 85-2 47 119 55 194h-31v-121c0-29-5-49-35-48" id="ar"/><g id="i"><use transform="matrix(0.07407407407407407,0,0,0.07407407407407407,0,0)" xlink:href="#ao"/><use transform="matrix(0.07407407407407407,0,0,0.07407407407407407,7.4074074074074066,0)" xlink:href="#ae"/><use transform="matrix(0.07407407407407407,0,0,0.07407407407407407,13.259259259259258,0)" xlink:href="#ar"/><use transform="matrix(0.07407407407407407,0,0,0.07407407407407407,35.407407407407405,0)" xlink:href="#ah"/></g><path d="M195 0l-74-108L45 0H8l94-129-87-119h37l69 98 67-98h37l-84 118L233 0h-38" id="as"/><use transform="matrix(0.09259259259259256,0,0,0.09259259259259256,0,0)" xlink:href="#as" id="j"/><path d="M137-103V0h-34v-103L8-248h37l75 118 75-118h37" id="at"/><use transform="matrix(0.0987654320987654,0,0,0.0987654320987654,0,0)" xlink:href="#at" id="k"/><use transform="matrix(0.09259259259259256,0,0,0.09259259259259256,0,0)" xlink:href="#as" id="l"/><path d="M118-107v75H92v-75H18v-26h74v-75h26v75h74v26h-74" id="au"/><use transform="matrix(0.09259259259259256,0,0,0.09259259259259256,0,0)" xlink:href="#au" id="m"/><path d="M127-220V0H93v-220H8v-28h204v28h-85" id="av"/><path d="M96-169c-40 0-48 33-48 73s9 75 48 75c24 0 41-14 43-38l32 2c-6 37-31 61-74 61-59 0-76-41-82-99-10-93 101-131 147-64 4 7 5 14 7 22l-32 3c-4-21-16-35-41-35" id="aw"/><path d="M100-194c62-1 85 37 85 99 1 63-27 99-86 99S16-35 15-95c0-66 28-99 85-99zM99-20c44 1 53-31 53-75 0-43-8-75-51-75s-53 32-53 75 10 74 51 75" id="ax"/><g id="n"><use transform="matrix(0.09259259259259256,0,0,0.09259259259259256,0,0)" xlink:href="#av"/><use transform="matrix(0.06481481481481478,0,0,0.06481481481481478,20.27777777777777,4.666666666666664)" xlink:href="#aw"/><use transform="matrix(0.06481481481481478,0,0,0.06481481481481478,31.944444444444432,4.666666666666664)" xlink:href="#ax"/><use transform="matrix(0.06481481481481478,0,0,0.06481481481481478,44.90740740740739,4.666666666666664)" xlink:href="#af"/></g><use transform="matrix(0.09259259259259256,0,0,0.09259259259259256,0,0)" xlink:href="#at" id="o"/><path d="M67-125c0 53 21 87 73 88 37 1 54-22 65-47l45 17C233-25 199 4 140 4 58 4 20-42 15-125 8-235 124-281 211-232c18 10 29 29 36 50l-46 12c-8-25-30-41-62-41-52 0-71 34-72 86" id="ay"/><path d="M133-34C117-15 103 5 69 4 32 3 11-16 11-54c-1-60 55-63 116-61 1-26-3-47-28-47-18 1-26 9-28 27l-52-2c7-38 36-58 82-57s74 22 75 68l1 82c-1 14 12 18 25 15v27c-30 8-71 5-69-32zm-48 3c29 0 43-24 42-57-32 0-66-3-65 30 0 17 8 27 23 27" id="az"/><path d="M137-138c1-29-70-34-71-4 15 46 118 7 119 86 1 83-164 76-172 9l43-7c4 19 20 25 44 25 33 8 57-30 24-41C81-84 22-81 20-136c-2-80 154-74 161-7" id="aA"/><path d="M185-48c-13 30-37 53-82 52C43 2 14-33 14-96s30-98 90-98c62 0 83 45 84 108H66c0 31 8 55 39 56 18 0 30-7 34-22zm-45-69c5-46-57-63-70-21-2 6-4 13-4 21h74" id="aB"/><g id="p"><use transform="matrix(0.1296296296296295,0,0,0.1296296296296295,0,0)" xlink:href="#ay"/><use transform="matrix(0.1296296296296295,0,0,0.1296296296296295,33.57407407407404,0)" xlink:href="#az"/><use transform="matrix(0.1296296296296295,0,0,0.1296296296296295,59.49999999999994,0)" xlink:href="#aA"/><use transform="matrix(0.1296296296296295,0,0,0.1296296296296295,85.42592592592584,0)" xlink:href="#aB"/></g><path d="M23 0v-37h61v-169l-59 37v-38l62-41h46v211h57V0H23" id="aC"/><use transform="matrix(0.1296296296296295,0,0,0.1296296296296295,0,0)" xlink:href="#aC" id="q"/><path d="M35-132v-50h50v50H35zM35 0v-49h50V0H35" id="aD"/><use transform="matrix(0.1296296296296295,0,0,0.1296296296296295,0,0)" xlink:href="#aD" id="r"/><path d="M182 0l-62-99L58 0H3l86-130-79-118h55l55 88 55-88h55l-75 118L237 0h-55" id="aE"/><use transform="matrix(0.1296296296296295,0,0,0.1296296296296295,0,0)" xlink:href="#aE" id="s"/><path d="M9-111v-56l180-61v40L43-139l146 49v40zM9 0v-39h180V0H9" id="aF"/><use transform="matrix(0.1296296296296295,0,0,0.1296296296296295,0,0)" xlink:href="#aF" id="t"/><path d="M146-102V0H94v-102L6-248h54l60 105 60-105h54" id="aG"/><use transform="matrix(0.1296296296296295,0,0,0.1296296296296295,0,0)" xlink:href="#aG" id="u"/><path d="M179-190L93 31C79 59 56 82 12 73V49c39 6 53-20 64-50L1-190h34L92-34l54-156h33" id="aH"/><path d="M68-38c1 34 0 65-14 84H32c9-13 17-26 17-46H33v-38h35" id="aI"/><path d="M87 75C49 33 22-17 22-94c0-76 28-126 65-167h31c-38 41-64 92-64 168S80 34 118 75H87" id="aJ"/><path d="M33-261c38 41 65 92 65 168S71 34 33 75H2C39 34 66-17 66-93S39-220 2-261h31" id="aK"/><g id="v"><use transform="matrix(0.1172839506172839,0,0,0.1172839506172839,0,0)" xlink:href="#ai"/><use transform="matrix(0.1172839506172839,0,0,0.1172839506172839,23.45679012345678,0)" xlink:href="#ah"/><use transform="matrix(0.1172839506172839,0,0,0.1172839506172839,46.91358024691356,0)" xlink:href="#ad"/><use transform="matrix(0.1172839506172839,0,0,0.1172839506172839,56.17901234567899,0)" xlink:href="#ap"/><use transform="matrix(0.1172839506172839,0,0,0.1172839506172839,79.63580246913577,0)" xlink:href="#aH"/><use transform="matrix(0.08209876543209872,0,0,0.08209876543209872,100.74691358024688,5.911111111111108)" xlink:href="#aj"/><use transform="matrix(0.08209876543209872,0,0,0.08209876543209872,122.01049382716045,5.911111111111108)" xlink:href="#ak"/><use transform="matrix(0.08209876543209872,0,0,0.08209876543209872,138.4302469135802,5.911111111111108)" xlink:href="#aI"/><use transform="matrix(0.08209876543209872,0,0,0.08209876543209872,146.64012345679006,5.911111111111108)" xlink:href="#aj"/><use transform="matrix(0.08209876543209872,0,0,0.08209876543209872,167.90370370370363,5.911111111111108)" xlink:href="#an"/><use transform="matrix(0.1172839506172839,0,0,0.1172839506172839,184.32345679012337,0)" xlink:href="#aJ"/><use transform="matrix(0.1172839506172839,0,0,0.1172839506172839,198.28024691358016,0)" xlink:href="#am"/><use transform="matrix(0.08209876543209872,0,0,0.08209876543209872,226.42839506172828,5.911111111111108)" xlink:href="#ak"/><use transform="matrix(0.1172839506172839,0,0,0.1172839506172839,242.84814814814803,0)" xlink:href="#aK"/></g><path d="M18-150v-26h174v26H18zm0 90v-26h174v26H18" id="aL"/><use transform="matrix(0.1172839506172839,0,0,0.1172839506172839,0,0)" xlink:href="#aL" id="w"/><use transform="matrix(0.1172839506172839,0,0,0.1172839506172839,0,0)" xlink:href="#at" id="x"/><g id="y"><use transform="matrix(0.09259259259259256,0,0,0.09259259259259256,0,0)" xlink:href="#aj"/><use transform="matrix(0.09259259259259256,0,0,0.09259259259259256,23.981481481481474,0)" xlink:href="#ak"/></g><use transform="matrix(0.09259259259259256,0,0,0.09259259259259256,0,0)" xlink:href="#al" id="z"/><g id="A"><use transform="matrix(0.09259259259259256,0,0,0.09259259259259256,0,0)" xlink:href="#am"/><use transform="matrix(0.09259259259259256,0,0,0.09259259259259256,22.222222222222214,0)" xlink:href="#ak"/></g><g id="B"><use transform="matrix(0.09259259259259256,0,0,0.09259259259259256,0,0)" xlink:href="#aj"/><use transform="matrix(0.09259259259259256,0,0,0.09259259259259256,23.981481481481474,0)" xlink:href="#an"/></g><g id="C"><use transform="matrix(0.08024691358024691,0,0,0.08024691358024691,0,0)" xlink:href="#am"/><use transform="matrix(0.08024691358024691,0,0,0.08024691358024691,19.25925925925926,0)" xlink:href="#ao"/><use transform="matrix(0.08024691358024691,0,0,0.08024691358024691,27.28395061728395,0)" xlink:href="#ap"/><use transform="matrix(0.08024691358024691,0,0,0.08024691358024691,43.33333333333333,0)" xlink:href="#aq"/><use transform="matrix(0.08024691358024691,0,0,0.08024691358024691,52.8827160493827,0)" xlink:href="#ao"/></g><g id="D"><use transform="matrix(0.08024691358024691,0,0,0.08024691358024691,0,0)" xlink:href="#ao"/><use transform="matrix(0.08024691358024691,0,0,0.08024691358024691,8.024691358024691,0)" xlink:href="#ae"/><use transform="matrix(0.08024691358024691,0,0,0.08024691358024691,14.364197530864196,0)" xlink:href="#ar"/><use transform="matrix(0.08024691358024691,0,0,0.08024691358024691,38.358024691358025,0)" xlink:href="#ah"/></g><use transform="matrix(0.0987654320987654,0,0,0.0987654320987654,0,0)" xlink:href="#as" id="E"/><use transform="matrix(0.09259259259259256,0,0,0.09259259259259256,0,0)" xlink:href="#at" id="F"/><use transform="matrix(0.08641975308641973,0,0,0.08641975308641973,0,0)" xlink:href="#at" id="G"/><use transform="matrix(0.08641975308641973,0,0,0.08641975308641973,0,0)" xlink:href="#au" id="H"/><g id="I"><use transform="matrix(0.08641975308641973,0,0,0.08641975308641973,0,0)" xlink:href="#av"/><use transform="matrix(0.06049382716049381,0,0,0.06049382716049381,18.92592592592592,4.355555555555554)" xlink:href="#aw"/><use transform="matrix(0.06049382716049381,0,0,0.06049382716049381,29.814814814814806,4.355555555555554)" xlink:href="#ax"/><use transform="matrix(0.06049382716049381,0,0,0.06049382716049381,41.91358024691357,4.355555555555554)" xlink:href="#af"/></g><path d="M25-224v-37h50v37H25zM25 0v-190h50V0H25" id="aM"/><path d="M121-226c-27-7-43 5-38 36h38v33H83V0H34v-157H6v-33h28c-9-59 32-81 87-68v32" id="aN"/><g id="J"><use transform="matrix(0.1172839506172839,0,0,0.1172839506172839,0,0)" xlink:href="#aM"/><use transform="matrix(0.1172839506172839,0,0,0.1172839506172839,11.72839506172839,0)" xlink:href="#aN"/></g><use transform="matrix(0.1172839506172839,0,0,0.1172839506172839,0,0)" xlink:href="#aE" id="K"/><path d="M15-91v-56l181-69v40L49-119l147 57v40" id="aO"/><use transform="matrix(0.1172839506172839,0,0,0.1172839506172839,0,0)" xlink:href="#aO" id="L"/><use transform="matrix(0.1172839506172839,0,0,0.1172839506172839,0,0)" xlink:href="#aG" id="M"/><path d="M125-100v72H85v-72H15v-39h70v-72h40v72h71v39h-71" id="aP"/><use transform="matrix(0.1172839506172839,0,0,0.1172839506172839,0,0)" xlink:href="#aP" id="N"/><path d="M136-208V0H84v-208H4v-40h212v40h-80" id="aQ"/><path d="M190-63c-7 42-38 67-86 67-59 0-84-38-90-98-12-110 154-137 174-36l-49 2c-2-19-15-32-35-32-30 0-35 28-38 64-6 74 65 87 74 30" id="aR"/><path d="M110-194c64 0 96 36 96 99 0 64-35 99-97 99-61 0-95-36-95-99 0-62 34-99 96-99zm-1 164c35 0 45-28 45-65 0-40-10-65-43-65-34 0-45 26-45 65 0 36 10 65 43 65" id="aS"/><path d="M135-194c87-1 58 113 63 194h-50c-7-57 23-157-34-157-59 0-34 97-39 157H25l-1-190h47c2 12-1 28 3 38 12-26 28-41 61-42" id="aT"/><g id="O"><use transform="matrix(0.1172839506172839,0,0,0.1172839506172839,0,0)" xlink:href="#aQ"/><use transform="matrix(0.08209876543209872,0,0,0.08209876543209872,25.685185185185173,5.911111111111108)" xlink:href="#aR"/><use transform="matrix(0.08209876543209872,0,0,0.08209876543209872,42.104938271604915,5.911111111111108)" xlink:href="#aS"/><use transform="matrix(0.08209876543209872,0,0,0.08209876543209872,60.084567901234536,5.911111111111108)" xlink:href="#aT"/></g><use transform="matrix(0.1172839506172839,0,0,0.1172839506172839,0,0)" xlink:href="#as" id="P"/><use transform="matrix(0.0987654320987654,0,0,0.0987654320987654,0,0)" xlink:href="#at" id="Q"/><path d="M9-50v-40l146-49L9-188v-40l180 61v56zM9 0v-39h180V0H9" id="aU"/><use transform="matrix(0.1172839506172839,0,0,0.1172839506172839,0,0)" xlink:href="#aU" id="R"/><g id="S"><use transform="matrix(0.11728395061728394,0,0,0.11728395061728394,0,0)" xlink:href="#ai"/><use transform="matrix(0.11728395061728394,0,0,0.11728395061728394,23.456790123456788,0)" xlink:href="#ah"/><use transform="matrix(0.11728395061728394,0,0,0.11728395061728394,46.913580246913575,0)" xlink:href="#ad"/><use transform="matrix(0.11728395061728394,0,0,0.11728395061728394,56.179012345679006,0)" xlink:href="#ap"/><use transform="matrix(0.11728395061728394,0,0,0.11728395061728394,79.6358024691358,0)" xlink:href="#aH"/><use transform="matrix(0.08209876543209875,0,0,0.08209876543209875,100.74691358024691,5.91111111111111)" xlink:href="#aj"/><use transform="matrix(0.08209876543209875,0,0,0.08209876543209875,122.01049382716049,5.91111111111111)" xlink:href="#ak"/><use transform="matrix(0.08209876543209875,0,0,0.08209876543209875,138.43024691358025,5.91111111111111)" xlink:href="#aI"/><use transform="matrix(0.08209876543209875,0,0,0.08209876543209875,146.64012345679012,5.91111111111111)" xlink:href="#aj"/><use transform="matrix(0.08209876543209875,0,0,0.08209876543209875,167.90370370370368,5.91111111111111)" xlink:href="#an"/><use transform="matrix(0.11728395061728394,0,0,0.11728395061728394,184.32345679012343,0)" xlink:href="#aJ"/><use transform="matrix(0.11728395061728394,0,0,0.11728395061728394,198.2802469135802,0)" xlink:href="#am"/><use transform="matrix(0.08209876543209875,0,0,0.08209876543209875,226.42839506172834,5.91111111111111)" xlink:href="#ak"/><use transform="matrix(0.11728395061728394,0,0,0.11728395061728394,242.8481481481481,0)" xlink:href="#aK"/><use transform="matrix(0.11728395061728394,0,0,0.11728395061728394,256.8049382716049,0)" xlink:href="#aL"/></g><use transform="matrix(0.11728395061728394,0,0,0.11728395061728394,0,0)" xlink:href="#at" id="T"/><use transform="matrix(0.11728395061728394,0,0,0.11728395061728394,0,0)" xlink:href="#au" id="U"/><path d="M115-194c53 0 69 39 70 98 0 66-23 100-70 100C84 3 66-7 56-30L54 0H23l1-261h32v101c10-23 28-34 59-34zm-8 174c40 0 45-34 45-75 0-40-5-75-45-74-42 0-51 32-51 76 0 43 10 73 51 73" id="aV"/><g id="V"><use transform="matrix(0.11728395061728394,0,0,0.11728395061728394,0,0)" xlink:href="#av"/><use transform="matrix(0.08209876543209875,0,0,0.08209876543209875,25.685185185185183,5.91111111111111)" xlink:href="#ax"/><use transform="matrix(0.08209876543209875,0,0,0.08209876543209875,42.10493827160493,5.91111111111111)" xlink:href="#aq"/><use transform="matrix(0.08209876543209875,0,0,0.08209876543209875,51.87469135802469,5.91111111111111)" xlink:href="#aV"/><use transform="matrix(0.08209876543209875,0,0,0.08209876543209875,68.29444444444444,5.91111111111111)" xlink:href="#ae"/><use transform="matrix(0.08209876543209875,0,0,0.08209876543209875,74.78024691358024,5.91111111111111)" xlink:href="#ao"/></g><g id="W"><use transform="matrix(0.09259259259259256,0,0,0.09259259259259256,0,0)" xlink:href="#av"/><use transform="matrix(0.06481481481481478,0,0,0.06481481481481478,20.27777777777777,4.666666666666664)" xlink:href="#ax"/><use transform="matrix(0.06481481481481478,0,0,0.06481481481481478,33.240740740740726,4.666666666666664)" xlink:href="#aq"/><use transform="matrix(0.06481481481481478,0,0,0.06481481481481478,40.95370370370369,4.666666666666664)" xlink:href="#aV"/><use transform="matrix(0.06481481481481478,0,0,0.06481481481481478,53.91666666666664,4.666666666666664)" xlink:href="#ae"/><use transform="matrix(0.06481481481481478,0,0,0.06481481481481478,59.03703703703701,4.666666666666664)" xlink:href="#ao"/></g><g id="X"><use transform="matrix(0.12962962962962957,0,0,0.12962962962962957,0,0)" xlink:href="#ay"/><use transform="matrix(0.12962962962962957,0,0,0.12962962962962957,33.574074074074055,0)" xlink:href="#az"/><use transform="matrix(0.12962962962962957,0,0,0.12962962962962957,59.49999999999997,0)" xlink:href="#aA"/><use transform="matrix(0.12962962962962957,0,0,0.12962962962962957,85.42592592592588,0)" xlink:href="#aB"/></g><path d="M182-182c0 78-84 86-111 141h115V0H12c-6-101 99-100 120-180 1-22-12-31-33-32-23 0-32 14-35 34l-49-3c5-45 32-70 84-70 51 0 83 22 83 69" id="aW"/><use transform="matrix(0.12962962962962957,0,0,0.12962962962962957,0,0)" xlink:href="#aW" id="Y"/><use transform="matrix(0.12962962962962957,0,0,0.12962962962962957,0,0)" xlink:href="#aD" id="Z"/><use transform="matrix(0.12962962962962957,0,0,0.12962962962962957,0,0)" xlink:href="#aE" id="aa"/><path d="M15-22v-40l146-57-146-57v-40l181 69v56" id="aX"/><use transform="matrix(0.12962962962962957,0,0,0.12962962962962957,0,0)" xlink:href="#aX" id="ab"/><use transform="matrix(0.12962962962962957,0,0,0.12962962962962957,0,0)" xlink:href="#aG" id="ac"/></defs></g></svg>